# xmcd
#
# Track frame offsets:
#	150
#	11709
#	32179
#	49794
#	66861
#	86154
#	101400
#	112364
#	131451
#	147363
#	161238
#	177859
#	192962
#	208935
#
# Disc length: 2977 seconds
#
# Revision: 0
# Processed by: cddbd v1.5.2PL0 Copyright (c) Steve Scherf et al.
# Submitted via: EasyCDDAExtractor 10.2.0.1
#
DISCID=d30b9f0e
DTITLE=Wendy Lewis - Christmas Favorites
DYEAR=2001
DGENRE=Gospel
TTITLE0=Christmas Times A Coming
TTITLE1=Silver Bells
TTITLE2=White Christmas
TTITLE3=The Friendly Beasts
TTITLE4=Beautiful Star Of Bethlehem
TTITLE5=God Rest Ye Merry Gentlemen
TTITLE6=Jingle Bells
TTITLE7=Silent Night
TTITLE8=The First Noel
TTITLE9=What Child Is This
TTITLE10=Away In A Manger
TTITLE11=Blue Christmas
TTITLE12=Bells Of St. Mary
TTITLE13=The Christmas Song
EXTD=
EXTT0=
EXTT1=
EXTT2=
EXTT3=
EXTT4=
EXTT5=
EXTT6=
EXTT7=
EXTT8=
EXTT9=
EXTT10=
EXTT11=
EXTT12=
EXTT13=
PLAYORDER=
